<mxfile host="app.diagrams.net" agent="Mozilla/5.0 (Macintosh; Intel Mac OS X 10_15_7) AppleWebKit/605.1.15 (KHTML, like Gecko) Version/18.0 Safari/605.1.15" version="25.0.3">
  <diagram name="第 1 页" id="C9Wwim8QM8_0M7PRquI8">
    <mxGraphModel dx="2190" dy="924" grid="1" gridSize="10" guides="1" tooltips="1" connect="1" arrows="1" fold="1" page="1" pageScale="1" pageWidth="827" pageHeight="1169" math="0" shadow="0">
      <root>
        <mxCell id="0" />
        <mxCell id="1" parent="0" />
        <mxCell id="RLp4bz0iWzhQgfL3OJoK-450" value="" style="rounded=0;whiteSpace=wrap;html=1;" parent="1" vertex="1">
          <mxGeometry x="-190" y="360" width="430" height="290" as="geometry" />
        </mxCell>
        <mxCell id="RLp4bz0iWzhQgfL3OJoK-172" value="&lt;font face=&quot;Times New Roman&quot;&gt;V_t&lt;/font&gt;" style="text;html=1;align=center;verticalAlign=middle;resizable=0;points=[];autosize=1;strokeColor=none;fillColor=none;" parent="1" vertex="1">
          <mxGeometry x="-88" y="240" width="40" height="30" as="geometry" />
        </mxCell>
        <mxCell id="RLp4bz0iWzhQgfL3OJoK-178" value="" style="group" parent="1" vertex="1" connectable="0">
          <mxGeometry y="480.45" width="115" height="70" as="geometry" />
        </mxCell>
        <mxCell id="RLp4bz0iWzhQgfL3OJoK-174" value="R-GCN" style="rounded=0;whiteSpace=wrap;html=1;fillColor=#fad7ac;strokeColor=#b46504;" parent="RLp4bz0iWzhQgfL3OJoK-178" vertex="1">
          <mxGeometry x="45" width="70" height="30" as="geometry" />
        </mxCell>
        <mxCell id="RLp4bz0iWzhQgfL3OJoK-175" value="R-GCN" style="rounded=0;whiteSpace=wrap;html=1;fillColor=#fad7ac;strokeColor=#b46504;" parent="RLp4bz0iWzhQgfL3OJoK-178" vertex="1">
          <mxGeometry x="20" y="20" width="70" height="30" as="geometry" />
        </mxCell>
        <mxCell id="RLp4bz0iWzhQgfL3OJoK-176" value="R-GCN" style="rounded=0;whiteSpace=wrap;html=1;fillColor=#fad7ac;strokeColor=#b46504;" parent="RLp4bz0iWzhQgfL3OJoK-178" vertex="1">
          <mxGeometry y="40" width="70" height="30" as="geometry" />
        </mxCell>
        <mxCell id="RLp4bz0iWzhQgfL3OJoK-219" value="" style="group" parent="1" vertex="1" connectable="0">
          <mxGeometry x="-133" y="270" width="180" height="70" as="geometry" />
        </mxCell>
        <mxCell id="RLp4bz0iWzhQgfL3OJoK-220" value="" style="group;fillOpacity=90;" parent="RLp4bz0iWzhQgfL3OJoK-219" vertex="1" connectable="0">
          <mxGeometry x="36" width="144" height="35" as="geometry" />
        </mxCell>
        <mxCell id="RLp4bz0iWzhQgfL3OJoK-221" value="" style="rounded=1;whiteSpace=wrap;html=1;" parent="RLp4bz0iWzhQgfL3OJoK-220" vertex="1">
          <mxGeometry width="144" height="35" as="geometry" />
        </mxCell>
        <mxCell id="RLp4bz0iWzhQgfL3OJoK-222" value="" style="ellipse;whiteSpace=wrap;html=1;aspect=fixed;fillColor=#e1d5e7;strokeColor=#9673a6;fillOpacity=90;" parent="RLp4bz0iWzhQgfL3OJoK-220" vertex="1">
          <mxGeometry x="9.003315789473673" y="7.65625" width="19.6875" height="19.6875" as="geometry" />
        </mxCell>
        <mxCell id="RLp4bz0iWzhQgfL3OJoK-223" value="" style="ellipse;whiteSpace=wrap;html=1;aspect=fixed;fillColor=#e1d5e7;strokeColor=#9673a6;fillOpacity=90;" parent="RLp4bz0iWzhQgfL3OJoK-220" vertex="1">
          <mxGeometry x="45.003315789473675" y="7.65625" width="19.6875" height="19.6875" as="geometry" />
        </mxCell>
        <mxCell id="RLp4bz0iWzhQgfL3OJoK-224" value="" style="ellipse;whiteSpace=wrap;html=1;aspect=fixed;fillColor=#e1d5e7;strokeColor=#9673a6;fillOpacity=90;" parent="RLp4bz0iWzhQgfL3OJoK-220" vertex="1">
          <mxGeometry x="81.00331578947367" y="7.65625" width="19.6875" height="19.6875" as="geometry" />
        </mxCell>
        <mxCell id="RLp4bz0iWzhQgfL3OJoK-225" value="" style="ellipse;whiteSpace=wrap;html=1;aspect=fixed;fillColor=#e1d5e7;strokeColor=#9673a6;fillOpacity=90;" parent="RLp4bz0iWzhQgfL3OJoK-220" vertex="1">
          <mxGeometry x="115.87831578947367" y="7.65625" width="19.6875" height="19.6875" as="geometry" />
        </mxCell>
        <mxCell id="RLp4bz0iWzhQgfL3OJoK-226" value="" style="group" parent="RLp4bz0iWzhQgfL3OJoK-219" vertex="1" connectable="0">
          <mxGeometry x="18" y="17.5" width="144" height="35" as="geometry" />
        </mxCell>
        <mxCell id="RLp4bz0iWzhQgfL3OJoK-227" value="" style="rounded=1;whiteSpace=wrap;html=1;" parent="RLp4bz0iWzhQgfL3OJoK-226" vertex="1">
          <mxGeometry width="144" height="35" as="geometry" />
        </mxCell>
        <mxCell id="RLp4bz0iWzhQgfL3OJoK-228" value="" style="ellipse;whiteSpace=wrap;html=1;aspect=fixed;fillColor=#e1d5e7;strokeColor=#9673a6;fillOpacity=90;" parent="RLp4bz0iWzhQgfL3OJoK-226" vertex="1">
          <mxGeometry x="9.003315789473673" y="7.65625" width="19.6875" height="19.6875" as="geometry" />
        </mxCell>
        <mxCell id="RLp4bz0iWzhQgfL3OJoK-229" value="" style="ellipse;whiteSpace=wrap;html=1;aspect=fixed;fillColor=#e1d5e7;strokeColor=#9673a6;fillOpacity=90;" parent="RLp4bz0iWzhQgfL3OJoK-226" vertex="1">
          <mxGeometry x="45.003315789473675" y="7.65625" width="19.6875" height="19.6875" as="geometry" />
        </mxCell>
        <mxCell id="RLp4bz0iWzhQgfL3OJoK-230" value="" style="ellipse;whiteSpace=wrap;html=1;aspect=fixed;fillColor=#e1d5e7;strokeColor=#9673a6;fillOpacity=90;" parent="RLp4bz0iWzhQgfL3OJoK-226" vertex="1">
          <mxGeometry x="81.00331578947367" y="7.65625" width="19.6875" height="19.6875" as="geometry" />
        </mxCell>
        <mxCell id="RLp4bz0iWzhQgfL3OJoK-231" value="" style="ellipse;whiteSpace=wrap;html=1;aspect=fixed;fillColor=#e1d5e7;strokeColor=#9673a6;fillOpacity=90;" parent="RLp4bz0iWzhQgfL3OJoK-226" vertex="1">
          <mxGeometry x="115.87831578947367" y="7.65625" width="19.6875" height="19.6875" as="geometry" />
        </mxCell>
        <mxCell id="RLp4bz0iWzhQgfL3OJoK-232" value="" style="group;fillOpacity=90;" parent="RLp4bz0iWzhQgfL3OJoK-219" vertex="1" connectable="0">
          <mxGeometry y="35" width="144" height="35" as="geometry" />
        </mxCell>
        <mxCell id="RLp4bz0iWzhQgfL3OJoK-233" value="" style="rounded=1;whiteSpace=wrap;html=1;" parent="RLp4bz0iWzhQgfL3OJoK-232" vertex="1">
          <mxGeometry width="144" height="35" as="geometry" />
        </mxCell>
        <mxCell id="RLp4bz0iWzhQgfL3OJoK-234" value="" style="ellipse;whiteSpace=wrap;html=1;aspect=fixed;fillColor=#e1d5e7;strokeColor=#9673a6;fillOpacity=90;" parent="RLp4bz0iWzhQgfL3OJoK-232" vertex="1">
          <mxGeometry x="9.003315789473673" y="7.65625" width="19.6875" height="19.6875" as="geometry" />
        </mxCell>
        <mxCell id="RLp4bz0iWzhQgfL3OJoK-235" value="" style="ellipse;whiteSpace=wrap;html=1;aspect=fixed;fillColor=#e1d5e7;strokeColor=#9673a6;fillOpacity=90;" parent="RLp4bz0iWzhQgfL3OJoK-232" vertex="1">
          <mxGeometry x="45.003315789473675" y="7.65625" width="19.6875" height="19.6875" as="geometry" />
        </mxCell>
        <mxCell id="RLp4bz0iWzhQgfL3OJoK-236" value="" style="ellipse;whiteSpace=wrap;html=1;aspect=fixed;fillColor=#e1d5e7;strokeColor=#9673a6;fillOpacity=90;" parent="RLp4bz0iWzhQgfL3OJoK-232" vertex="1">
          <mxGeometry x="81.00331578947367" y="7.65625" width="19.6875" height="19.6875" as="geometry" />
        </mxCell>
        <mxCell id="RLp4bz0iWzhQgfL3OJoK-237" value="" style="ellipse;whiteSpace=wrap;html=1;aspect=fixed;fillColor=#e1d5e7;strokeColor=#9673a6;fillOpacity=90;" parent="RLp4bz0iWzhQgfL3OJoK-232" vertex="1">
          <mxGeometry x="115.875" y="7.65625" width="18.59375" height="18.59375" as="geometry" />
        </mxCell>
        <mxCell id="RLp4bz0iWzhQgfL3OJoK-358" value="" style="group" parent="1" vertex="1" connectable="0">
          <mxGeometry x="17.5" y="690.15" width="180" height="70" as="geometry" />
        </mxCell>
        <mxCell id="RLp4bz0iWzhQgfL3OJoK-359" value="" style="group;fillOpacity=90;" parent="RLp4bz0iWzhQgfL3OJoK-358" vertex="1" connectable="0">
          <mxGeometry x="36" width="144" height="35" as="geometry" />
        </mxCell>
        <mxCell id="RLp4bz0iWzhQgfL3OJoK-360" value="" style="rounded=1;whiteSpace=wrap;html=1;" parent="RLp4bz0iWzhQgfL3OJoK-359" vertex="1">
          <mxGeometry width="144" height="35" as="geometry" />
        </mxCell>
        <mxCell id="RLp4bz0iWzhQgfL3OJoK-361" value="" style="ellipse;whiteSpace=wrap;html=1;aspect=fixed;fillColor=#f8cecc;strokeColor=#b85450;fillOpacity=90;" parent="RLp4bz0iWzhQgfL3OJoK-359" vertex="1">
          <mxGeometry x="1.0033157894736728" y="7.65625" width="19.6875" height="19.6875" as="geometry" />
        </mxCell>
        <mxCell id="RLp4bz0iWzhQgfL3OJoK-362" value="" style="ellipse;whiteSpace=wrap;html=1;aspect=fixed;fillColor=#f8cecc;strokeColor=#b85450;fillOpacity=90;" parent="RLp4bz0iWzhQgfL3OJoK-359" vertex="1">
          <mxGeometry x="37.003315789473675" y="7.65625" width="19.6875" height="19.6875" as="geometry" />
        </mxCell>
        <mxCell id="RLp4bz0iWzhQgfL3OJoK-363" value="" style="ellipse;whiteSpace=wrap;html=1;aspect=fixed;fillColor=#f8cecc;strokeColor=#b85450;fillOpacity=90;" parent="RLp4bz0iWzhQgfL3OJoK-359" vertex="1">
          <mxGeometry x="73.00331578947367" y="7.65625" width="19.6875" height="19.6875" as="geometry" />
        </mxCell>
        <mxCell id="RLp4bz0iWzhQgfL3OJoK-364" value="" style="ellipse;whiteSpace=wrap;html=1;aspect=fixed;fillColor=#f8cecc;strokeColor=#b85450;fillOpacity=90;" parent="RLp4bz0iWzhQgfL3OJoK-359" vertex="1">
          <mxGeometry x="107.87831578947367" y="7.65625" width="19.6875" height="19.6875" as="geometry" />
        </mxCell>
        <mxCell id="RLp4bz0iWzhQgfL3OJoK-365" value="" style="group" parent="RLp4bz0iWzhQgfL3OJoK-358" vertex="1" connectable="0">
          <mxGeometry x="10" y="17.5" width="144" height="35" as="geometry" />
        </mxCell>
        <mxCell id="RLp4bz0iWzhQgfL3OJoK-366" value="" style="rounded=1;whiteSpace=wrap;html=1;" parent="RLp4bz0iWzhQgfL3OJoK-365" vertex="1">
          <mxGeometry width="144" height="35" as="geometry" />
        </mxCell>
        <mxCell id="RLp4bz0iWzhQgfL3OJoK-367" value="" style="ellipse;whiteSpace=wrap;html=1;aspect=fixed;fillColor=#f8cecc;strokeColor=#b85450;fillOpacity=90;" parent="RLp4bz0iWzhQgfL3OJoK-365" vertex="1">
          <mxGeometry x="9.003315789473673" y="7.65625" width="19.6875" height="19.6875" as="geometry" />
        </mxCell>
        <mxCell id="RLp4bz0iWzhQgfL3OJoK-368" value="" style="ellipse;whiteSpace=wrap;html=1;aspect=fixed;fillColor=#f8cecc;strokeColor=#b85450;fillOpacity=90;" parent="RLp4bz0iWzhQgfL3OJoK-365" vertex="1">
          <mxGeometry x="45.003315789473675" y="7.65625" width="19.6875" height="19.6875" as="geometry" />
        </mxCell>
        <mxCell id="RLp4bz0iWzhQgfL3OJoK-369" value="" style="ellipse;whiteSpace=wrap;html=1;aspect=fixed;fillColor=#f8cecc;strokeColor=#b85450;fillOpacity=90;" parent="RLp4bz0iWzhQgfL3OJoK-365" vertex="1">
          <mxGeometry x="81.00331578947367" y="7.65625" width="19.6875" height="19.6875" as="geometry" />
        </mxCell>
        <mxCell id="RLp4bz0iWzhQgfL3OJoK-370" value="" style="ellipse;whiteSpace=wrap;html=1;aspect=fixed;fillColor=#f8cecc;strokeColor=#b85450;fillOpacity=90;" parent="RLp4bz0iWzhQgfL3OJoK-365" vertex="1">
          <mxGeometry x="115.87831578947367" y="7.65625" width="19.6875" height="19.6875" as="geometry" />
        </mxCell>
        <mxCell id="RLp4bz0iWzhQgfL3OJoK-371" value="" style="group;fillOpacity=90;" parent="RLp4bz0iWzhQgfL3OJoK-358" vertex="1" connectable="0">
          <mxGeometry x="-8" y="35" width="144" height="35" as="geometry" />
        </mxCell>
        <mxCell id="RLp4bz0iWzhQgfL3OJoK-372" value="" style="rounded=1;whiteSpace=wrap;html=1;" parent="RLp4bz0iWzhQgfL3OJoK-371" vertex="1">
          <mxGeometry width="144" height="35" as="geometry" />
        </mxCell>
        <mxCell id="RLp4bz0iWzhQgfL3OJoK-373" value="" style="ellipse;whiteSpace=wrap;html=1;aspect=fixed;fillColor=#f8cecc;strokeColor=#b85450;fillOpacity=90;" parent="RLp4bz0iWzhQgfL3OJoK-371" vertex="1">
          <mxGeometry x="9.003315789473673" y="7.65625" width="19.6875" height="19.6875" as="geometry" />
        </mxCell>
        <mxCell id="RLp4bz0iWzhQgfL3OJoK-374" value="" style="ellipse;whiteSpace=wrap;html=1;aspect=fixed;fillColor=#f8cecc;strokeColor=#b85450;fillOpacity=90;" parent="RLp4bz0iWzhQgfL3OJoK-371" vertex="1">
          <mxGeometry x="45.003315789473675" y="7.65625" width="19.6875" height="19.6875" as="geometry" />
        </mxCell>
        <mxCell id="RLp4bz0iWzhQgfL3OJoK-375" value="" style="ellipse;whiteSpace=wrap;html=1;aspect=fixed;fillColor=#f8cecc;strokeColor=#b85450;fillOpacity=90;" parent="RLp4bz0iWzhQgfL3OJoK-371" vertex="1">
          <mxGeometry x="81.00331578947367" y="7.65625" width="19.6875" height="19.6875" as="geometry" />
        </mxCell>
        <mxCell id="RLp4bz0iWzhQgfL3OJoK-376" value="" style="ellipse;whiteSpace=wrap;html=1;aspect=fixed;fillColor=#f8cecc;strokeColor=#b85450;fillOpacity=90;" parent="RLp4bz0iWzhQgfL3OJoK-371" vertex="1">
          <mxGeometry x="115.875" y="7.65625" width="18.59375" height="18.59375" as="geometry" />
        </mxCell>
        <mxCell id="RLp4bz0iWzhQgfL3OJoK-383" value="&lt;font face=&quot;Times New Roman&quot;&gt;Coord_t&lt;/font&gt;" style="text;html=1;align=center;verticalAlign=middle;resizable=0;points=[];autosize=1;strokeColor=none;fillColor=none;" parent="1" vertex="1">
          <mxGeometry x="51.5" y="660.15" width="60" height="30" as="geometry" />
        </mxCell>
        <mxCell id="RLp4bz0iWzhQgfL3OJoK-408" style="edgeStyle=orthogonalEdgeStyle;rounded=0;orthogonalLoop=1;jettySize=auto;html=1;exitX=0.5;exitY=1;exitDx=0;exitDy=0;entryX=0.5;entryY=0;entryDx=0;entryDy=0;" parent="1" source="RLp4bz0iWzhQgfL3OJoK-233" target="RLp4bz0iWzhQgfL3OJoK-386" edge="1">
          <mxGeometry relative="1" as="geometry" />
        </mxCell>
        <mxCell id="RLp4bz0iWzhQgfL3OJoK-421" style="edgeStyle=orthogonalEdgeStyle;rounded=0;orthogonalLoop=1;jettySize=auto;html=1;exitX=1;exitY=0.5;exitDx=0;exitDy=0;" parent="1" source="RLp4bz0iWzhQgfL3OJoK-420" edge="1">
          <mxGeometry relative="1" as="geometry">
            <mxPoint x="280" y="415" as="targetPoint" />
          </mxGeometry>
        </mxCell>
        <mxCell id="RLp4bz0iWzhQgfL3OJoK-420" value="&lt;font style=&quot;font-size: 14px;&quot; face=&quot;Times New Roman&quot;&gt;Gate&amp;nbsp;&lt;/font&gt;&lt;div&gt;&lt;font size=&quot;3&quot; face=&quot;Times New Roman&quot;&gt;Integration&lt;/font&gt;&lt;/div&gt;" style="rounded=0;whiteSpace=wrap;html=1;fillColor=#fad7ac;strokeColor=#b46504;" parent="1" vertex="1">
          <mxGeometry x="80" y="385" width="110" height="60" as="geometry" />
        </mxCell>
        <mxCell id="RLp4bz0iWzhQgfL3OJoK-422" style="edgeStyle=orthogonalEdgeStyle;rounded=0;orthogonalLoop=1;jettySize=auto;html=1;exitX=1;exitY=0.5;exitDx=0;exitDy=0;entryX=0.5;entryY=1;entryDx=0;entryDy=0;" parent="1" source="RLp4bz0iWzhQgfL3OJoK-175" target="RLp4bz0iWzhQgfL3OJoK-420" edge="1">
          <mxGeometry relative="1" as="geometry" />
        </mxCell>
        <mxCell id="RLp4bz0iWzhQgfL3OJoK-424" style="edgeStyle=orthogonalEdgeStyle;rounded=0;orthogonalLoop=1;jettySize=auto;html=1;exitX=1;exitY=0.5;exitDx=0;exitDy=0;" parent="1" source="RLp4bz0iWzhQgfL3OJoK-392" edge="1">
          <mxGeometry relative="1" as="geometry">
            <mxPoint x="80" y="415" as="targetPoint" />
          </mxGeometry>
        </mxCell>
        <mxCell id="RLp4bz0iWzhQgfL3OJoK-257" value="&lt;font face=&quot;Times New Roman&quot;&gt;E_t&lt;/font&gt;" style="text;html=1;align=center;verticalAlign=middle;resizable=0;points=[];autosize=1;strokeColor=none;fillColor=none;" parent="1" vertex="1">
          <mxGeometry x="-139" y="669.5" width="40" height="30" as="geometry" />
        </mxCell>
        <mxCell id="RLp4bz0iWzhQgfL3OJoK-238" value="" style="group" parent="1" vertex="1" connectable="0">
          <mxGeometry x="-190" y="691.5" width="171" height="68" as="geometry" />
        </mxCell>
        <mxCell id="RLp4bz0iWzhQgfL3OJoK-239" value="" style="group;fillOpacity=90;" parent="RLp4bz0iWzhQgfL3OJoK-238" vertex="1" connectable="0">
          <mxGeometry x="34.19999999999999" width="136.79999999999995" height="33.99999999999999" as="geometry" />
        </mxCell>
        <mxCell id="RLp4bz0iWzhQgfL3OJoK-240" value="" style="rounded=1;whiteSpace=wrap;html=1;" parent="RLp4bz0iWzhQgfL3OJoK-239" vertex="1">
          <mxGeometry width="136.79999999999995" height="33.99999999999999" as="geometry" />
        </mxCell>
        <mxCell id="RLp4bz0iWzhQgfL3OJoK-241" value="" style="ellipse;whiteSpace=wrap;html=1;aspect=fixed;fillColor=#fff2cc;strokeColor=#d6b656;fillOpacity=90;" parent="RLp4bz0iWzhQgfL3OJoK-239" vertex="1">
          <mxGeometry x="8.553149999999986" y="7.437499999999999" width="17.176339285714285" height="17.176339285714285" as="geometry" />
        </mxCell>
        <mxCell id="RLp4bz0iWzhQgfL3OJoK-242" value="" style="ellipse;whiteSpace=wrap;html=1;aspect=fixed;fillColor=#fff2cc;strokeColor=#d6b656;fillOpacity=90;" parent="RLp4bz0iWzhQgfL3OJoK-239" vertex="1">
          <mxGeometry x="42.753149999999984" y="7.437499999999999" width="17.176339285714285" height="17.176339285714285" as="geometry" />
        </mxCell>
        <mxCell id="RLp4bz0iWzhQgfL3OJoK-243" value="" style="ellipse;whiteSpace=wrap;html=1;aspect=fixed;fillColor=#fff2cc;strokeColor=#d6b656;fillOpacity=90;" parent="RLp4bz0iWzhQgfL3OJoK-239" vertex="1">
          <mxGeometry x="76.95314999999998" y="7.437499999999999" width="17.176339285714285" height="17.176339285714285" as="geometry" />
        </mxCell>
        <mxCell id="RLp4bz0iWzhQgfL3OJoK-244" value="" style="ellipse;whiteSpace=wrap;html=1;aspect=fixed;fillColor=#fff2cc;strokeColor=#d6b656;fillOpacity=90;" parent="RLp4bz0iWzhQgfL3OJoK-239" vertex="1">
          <mxGeometry x="110.08439999999997" y="7.437499999999999" width="17.176339285714285" height="17.176339285714285" as="geometry" />
        </mxCell>
        <mxCell id="RLp4bz0iWzhQgfL3OJoK-245" value="" style="group" parent="RLp4bz0iWzhQgfL3OJoK-238" vertex="1" connectable="0">
          <mxGeometry x="17.099999999999994" y="16.999999999999996" width="136.79999999999995" height="33.99999999999999" as="geometry" />
        </mxCell>
        <mxCell id="RLp4bz0iWzhQgfL3OJoK-246" value="" style="rounded=1;whiteSpace=wrap;html=1;" parent="RLp4bz0iWzhQgfL3OJoK-245" vertex="1">
          <mxGeometry width="136.79999999999995" height="33.99999999999999" as="geometry" />
        </mxCell>
        <mxCell id="RLp4bz0iWzhQgfL3OJoK-247" value="" style="ellipse;whiteSpace=wrap;html=1;aspect=fixed;fillColor=#fff2cc;strokeColor=#d6b656;fillOpacity=90;" parent="RLp4bz0iWzhQgfL3OJoK-245" vertex="1">
          <mxGeometry x="8.553149999999986" y="7.437499999999999" width="17.176339285714285" height="17.176339285714285" as="geometry" />
        </mxCell>
        <mxCell id="RLp4bz0iWzhQgfL3OJoK-248" value="" style="ellipse;whiteSpace=wrap;html=1;aspect=fixed;fillColor=#fff2cc;strokeColor=#d6b656;fillOpacity=90;" parent="RLp4bz0iWzhQgfL3OJoK-245" vertex="1">
          <mxGeometry x="42.753149999999984" y="7.437499999999999" width="17.176339285714285" height="17.176339285714285" as="geometry" />
        </mxCell>
        <mxCell id="RLp4bz0iWzhQgfL3OJoK-249" value="" style="ellipse;whiteSpace=wrap;html=1;aspect=fixed;fillColor=#fff2cc;strokeColor=#d6b656;fillOpacity=90;" parent="RLp4bz0iWzhQgfL3OJoK-245" vertex="1">
          <mxGeometry x="76.95314999999998" y="7.437499999999999" width="17.176339285714285" height="17.176339285714285" as="geometry" />
        </mxCell>
        <mxCell id="RLp4bz0iWzhQgfL3OJoK-250" value="" style="ellipse;whiteSpace=wrap;html=1;aspect=fixed;fillColor=#fff2cc;strokeColor=#d6b656;fillOpacity=90;" parent="RLp4bz0iWzhQgfL3OJoK-245" vertex="1">
          <mxGeometry x="110.08439999999997" y="7.437499999999999" width="17.176339285714285" height="17.176339285714285" as="geometry" />
        </mxCell>
        <mxCell id="RLp4bz0iWzhQgfL3OJoK-251" value="" style="group;fillOpacity=90;" parent="RLp4bz0iWzhQgfL3OJoK-238" vertex="1" connectable="0">
          <mxGeometry y="33.99999999999999" width="136.79999999999995" height="33.99999999999999" as="geometry" />
        </mxCell>
        <mxCell id="RLp4bz0iWzhQgfL3OJoK-252" value="" style="rounded=1;whiteSpace=wrap;html=1;" parent="RLp4bz0iWzhQgfL3OJoK-251" vertex="1">
          <mxGeometry width="136.79999999999995" height="33.99999999999999" as="geometry" />
        </mxCell>
        <mxCell id="RLp4bz0iWzhQgfL3OJoK-253" value="" style="ellipse;whiteSpace=wrap;html=1;aspect=fixed;fillColor=#fff2cc;strokeColor=#d6b656;fillOpacity=90;" parent="RLp4bz0iWzhQgfL3OJoK-251" vertex="1">
          <mxGeometry x="8.553149999999986" y="7.437499999999999" width="17.176339285714285" height="17.176339285714285" as="geometry" />
        </mxCell>
        <mxCell id="RLp4bz0iWzhQgfL3OJoK-254" value="" style="ellipse;whiteSpace=wrap;html=1;aspect=fixed;fillColor=#fff2cc;strokeColor=#d6b656;fillOpacity=90;" parent="RLp4bz0iWzhQgfL3OJoK-251" vertex="1">
          <mxGeometry x="42.753149999999984" y="7.437499999999999" width="17.176339285714285" height="17.176339285714285" as="geometry" />
        </mxCell>
        <mxCell id="RLp4bz0iWzhQgfL3OJoK-255" value="" style="ellipse;whiteSpace=wrap;html=1;aspect=fixed;fillColor=#fff2cc;strokeColor=#d6b656;fillOpacity=90;" parent="RLp4bz0iWzhQgfL3OJoK-251" vertex="1">
          <mxGeometry x="76.95314999999998" y="7.437499999999999" width="17.176339285714285" height="17.176339285714285" as="geometry" />
        </mxCell>
        <mxCell id="RLp4bz0iWzhQgfL3OJoK-256" value="" style="ellipse;whiteSpace=wrap;html=1;aspect=fixed;fillColor=#fff2cc;strokeColor=#d6b656;fillOpacity=90;" parent="RLp4bz0iWzhQgfL3OJoK-251" vertex="1">
          <mxGeometry x="110.08124999999998" y="7.437499999999999" width="16.22209821428571" height="16.22209821428571" as="geometry" />
        </mxCell>
        <mxCell id="RLp4bz0iWzhQgfL3OJoK-385" value="" style="group;fillOpacity=90;" parent="1" vertex="1" connectable="0">
          <mxGeometry x="-117" y="390" width="112" height="53.5" as="geometry" />
        </mxCell>
        <mxCell id="RLp4bz0iWzhQgfL3OJoK-386" value="" style="rounded=1;whiteSpace=wrap;html=1;" parent="RLp4bz0iWzhQgfL3OJoK-385" vertex="1">
          <mxGeometry width="112" height="25" as="geometry" />
        </mxCell>
        <mxCell id="RLp4bz0iWzhQgfL3OJoK-387" value="" style="ellipse;whiteSpace=wrap;html=1;aspect=fixed;fillColor=#d5e8d4;strokeColor=#82b366;fillOpacity=90;" parent="RLp4bz0iWzhQgfL3OJoK-385" vertex="1">
          <mxGeometry x="7.002578947368412" y="5.46875" width="14.0625" height="14.0625" as="geometry" />
        </mxCell>
        <mxCell id="RLp4bz0iWzhQgfL3OJoK-388" value="" style="ellipse;whiteSpace=wrap;html=1;aspect=fixed;fillColor=#d5e8d4;strokeColor=#82b366;fillOpacity=90;" parent="RLp4bz0iWzhQgfL3OJoK-385" vertex="1">
          <mxGeometry x="35.00257894736841" y="5.46875" width="14.0625" height="14.0625" as="geometry" />
        </mxCell>
        <mxCell id="RLp4bz0iWzhQgfL3OJoK-389" value="" style="ellipse;whiteSpace=wrap;html=1;aspect=fixed;fillColor=#d5e8d4;strokeColor=#82b366;fillOpacity=90;" parent="RLp4bz0iWzhQgfL3OJoK-385" vertex="1">
          <mxGeometry x="63.00257894736841" y="5.46875" width="14.0625" height="14.0625" as="geometry" />
        </mxCell>
        <mxCell id="RLp4bz0iWzhQgfL3OJoK-390" value="" style="ellipse;whiteSpace=wrap;html=1;aspect=fixed;fillColor=#d5e8d4;strokeColor=#82b366;fillOpacity=90;" parent="RLp4bz0iWzhQgfL3OJoK-385" vertex="1">
          <mxGeometry x="90.12757894736842" y="5.46875" width="14.0625" height="14.0625" as="geometry" />
        </mxCell>
        <mxCell id="RLp4bz0iWzhQgfL3OJoK-404" value="" style="group" parent="RLp4bz0iWzhQgfL3OJoK-385" vertex="1" connectable="0">
          <mxGeometry x="-28" y="-28.5" width="140" height="82" as="geometry" />
        </mxCell>
        <mxCell id="RLp4bz0iWzhQgfL3OJoK-403" value="&lt;font face=&quot;Times New Roman&quot;&gt;H_t-1&lt;/font&gt;" style="text;html=1;align=center;verticalAlign=middle;resizable=0;points=[];autosize=1;strokeColor=none;fillColor=none;" parent="RLp4bz0iWzhQgfL3OJoK-404" vertex="1">
          <mxGeometry x="15" width="50" height="30" as="geometry" />
        </mxCell>
        <mxCell id="RLp4bz0iWzhQgfL3OJoK-391" value="" style="group" parent="1" vertex="1" connectable="0">
          <mxGeometry x="-131" y="402.5" width="112" height="25" as="geometry" />
        </mxCell>
        <mxCell id="RLp4bz0iWzhQgfL3OJoK-392" value="" style="rounded=1;whiteSpace=wrap;html=1;" parent="RLp4bz0iWzhQgfL3OJoK-391" vertex="1">
          <mxGeometry width="112" height="25" as="geometry" />
        </mxCell>
        <mxCell id="RLp4bz0iWzhQgfL3OJoK-393" value="" style="ellipse;whiteSpace=wrap;html=1;aspect=fixed;fillColor=#d5e8d4;strokeColor=#82b366;fillOpacity=90;" parent="RLp4bz0iWzhQgfL3OJoK-391" vertex="1">
          <mxGeometry x="7.002578947368412" y="5.46875" width="14.0625" height="14.0625" as="geometry" />
        </mxCell>
        <mxCell id="RLp4bz0iWzhQgfL3OJoK-394" value="" style="ellipse;whiteSpace=wrap;html=1;aspect=fixed;fillColor=#d5e8d4;strokeColor=#82b366;fillOpacity=90;" parent="RLp4bz0iWzhQgfL3OJoK-391" vertex="1">
          <mxGeometry x="35.00257894736841" y="5.46875" width="14.0625" height="14.0625" as="geometry" />
        </mxCell>
        <mxCell id="RLp4bz0iWzhQgfL3OJoK-395" value="" style="ellipse;whiteSpace=wrap;html=1;aspect=fixed;fillColor=#d5e8d4;strokeColor=#82b366;fillOpacity=90;" parent="RLp4bz0iWzhQgfL3OJoK-391" vertex="1">
          <mxGeometry x="63.00257894736841" y="5.46875" width="14.0625" height="14.0625" as="geometry" />
        </mxCell>
        <mxCell id="RLp4bz0iWzhQgfL3OJoK-396" value="" style="ellipse;whiteSpace=wrap;html=1;aspect=fixed;fillColor=#d5e8d4;strokeColor=#82b366;fillOpacity=90;" parent="RLp4bz0iWzhQgfL3OJoK-391" vertex="1">
          <mxGeometry x="90.12757894736842" y="5.46875" width="14.0625" height="14.0625" as="geometry" />
        </mxCell>
        <mxCell id="RLp4bz0iWzhQgfL3OJoK-398" value="" style="rounded=1;whiteSpace=wrap;html=1;" parent="1" vertex="1">
          <mxGeometry x="-145" y="415" width="112" height="25" as="geometry" />
        </mxCell>
        <mxCell id="RLp4bz0iWzhQgfL3OJoK-399" value="" style="ellipse;whiteSpace=wrap;html=1;aspect=fixed;fillColor=#d5e8d4;strokeColor=#82b366;fillOpacity=90;" parent="1" vertex="1">
          <mxGeometry x="-137.99742105263158" y="420.46875" width="14.0625" height="14.0625" as="geometry" />
        </mxCell>
        <mxCell id="RLp4bz0iWzhQgfL3OJoK-400" value="" style="ellipse;whiteSpace=wrap;html=1;aspect=fixed;fillColor=#d5e8d4;strokeColor=#82b366;fillOpacity=90;" parent="1" vertex="1">
          <mxGeometry x="-109.99742105263158" y="420.46875" width="14.0625" height="14.0625" as="geometry" />
        </mxCell>
        <mxCell id="RLp4bz0iWzhQgfL3OJoK-401" value="" style="ellipse;whiteSpace=wrap;html=1;aspect=fixed;fillColor=#d5e8d4;strokeColor=#82b366;fillOpacity=90;" parent="1" vertex="1">
          <mxGeometry x="-81.99742105263158" y="420.46875" width="14.0625" height="14.0625" as="geometry" />
        </mxCell>
        <mxCell id="RLp4bz0iWzhQgfL3OJoK-402" value="" style="ellipse;whiteSpace=wrap;html=1;aspect=fixed;fillColor=#d5e8d4;strokeColor=#82b366;fillOpacity=90;" parent="1" vertex="1">
          <mxGeometry x="-54.875" y="420.46875" width="13.28125" height="13.28125" as="geometry" />
        </mxCell>
        <mxCell id="RLp4bz0iWzhQgfL3OJoK-415" value="" style="edgeStyle=orthogonalEdgeStyle;rounded=0;orthogonalLoop=1;jettySize=auto;html=1;exitX=0.5;exitY=1;exitDx=0;exitDy=0;" parent="1" source="RLp4bz0iWzhQgfL3OJoK-398" edge="1">
          <mxGeometry relative="1" as="geometry">
            <mxPoint x="-89" y="490" as="targetPoint" />
            <mxPoint x="36" y="855" as="sourcePoint" />
          </mxGeometry>
        </mxCell>
        <mxCell id="zKu0NWkIydgmG8sTi8Hs-60" style="edgeStyle=orthogonalEdgeStyle;rounded=0;orthogonalLoop=1;jettySize=auto;html=1;exitX=0.5;exitY=0;exitDx=0;exitDy=0;entryX=0.5;entryY=1;entryDx=0;entryDy=0;" edge="1" parent="1" source="RLp4bz0iWzhQgfL3OJoK-409">
          <mxGeometry relative="1" as="geometry">
            <mxPoint x="-89" y="541.4500000000003" as="targetPoint" />
          </mxGeometry>
        </mxCell>
        <mxCell id="RLp4bz0iWzhQgfL3OJoK-409" value="Attention Aggregation" style="rounded=0;whiteSpace=wrap;html=1;fillColor=#fad7ac;strokeColor=#b46504;" parent="1" vertex="1">
          <mxGeometry x="-29.5" y="584" width="95" height="40" as="geometry" />
        </mxCell>
        <mxCell id="zKu0NWkIydgmG8sTi8Hs-64" style="edgeStyle=orthogonalEdgeStyle;rounded=0;orthogonalLoop=1;jettySize=auto;html=1;exitX=1;exitY=0.5;exitDx=0;exitDy=0;" edge="1" parent="1" source="RLp4bz0iWzhQgfL3OJoK-451">
          <mxGeometry relative="1" as="geometry">
            <mxPoint x="-10" y="516" as="targetPoint" />
          </mxGeometry>
        </mxCell>
        <mxCell id="RLp4bz0iWzhQgfL3OJoK-451" value="&lt;font face=&quot;Times New Roman&quot;&gt;GRU&lt;/font&gt;" style="rounded=0;whiteSpace=wrap;html=1;fillColor=#fad7ac;strokeColor=#b46504;" parent="1" vertex="1">
          <mxGeometry x="-134.09" y="490.45" width="90" height="50" as="geometry" />
        </mxCell>
        <mxCell id="RLp4bz0iWzhQgfL3OJoK-16" value="" style="group" parent="1" vertex="1" connectable="0">
          <mxGeometry x="-369.21000000000004" y="402.12" width="120" height="210" as="geometry" />
        </mxCell>
        <mxCell id="zKu0NWkIydgmG8sTi8Hs-3" value="" style="rounded=0;whiteSpace=wrap;html=1;" vertex="1" parent="RLp4bz0iWzhQgfL3OJoK-16">
          <mxGeometry width="120" height="120" as="geometry" />
        </mxCell>
        <mxCell id="RLp4bz0iWzhQgfL3OJoK-17" value="" style="ellipse;whiteSpace=wrap;html=1;aspect=fixed;fillColor=#ffe6cc;strokeColor=#d79b00;" parent="RLp4bz0iWzhQgfL3OJoK-16" vertex="1">
          <mxGeometry y="45" width="20" height="20" as="geometry" />
        </mxCell>
        <mxCell id="RLp4bz0iWzhQgfL3OJoK-18" value="" style="ellipse;whiteSpace=wrap;html=1;aspect=fixed;fillColor=#e1d5e7;strokeColor=#9673a6;" parent="RLp4bz0iWzhQgfL3OJoK-16" vertex="1">
          <mxGeometry x="69.4736842105263" y="90" width="20" height="20" as="geometry" />
        </mxCell>
        <mxCell id="RLp4bz0iWzhQgfL3OJoK-19" value="" style="ellipse;whiteSpace=wrap;html=1;aspect=fixed;fillColor=#fff2cc;strokeColor=#d6b656;" parent="RLp4bz0iWzhQgfL3OJoK-16" vertex="1">
          <mxGeometry x="94.73684210526315" y="30" width="20" height="20" as="geometry" />
        </mxCell>
        <mxCell id="RLp4bz0iWzhQgfL3OJoK-20" value="" style="ellipse;whiteSpace=wrap;html=1;aspect=fixed;fillColor=#f8cecc;strokeColor=#b85450;" parent="RLp4bz0iWzhQgfL3OJoK-16" vertex="1">
          <mxGeometry x="44.210526315789465" width="20" height="20" as="geometry" />
        </mxCell>
        <mxCell id="RLp4bz0iWzhQgfL3OJoK-21" value="" style="endArrow=none;html=1;rounded=0;exitX=0.35;exitY=1.05;exitDx=0;exitDy=0;exitPerimeter=0;" parent="RLp4bz0iWzhQgfL3OJoK-16" source="RLp4bz0iWzhQgfL3OJoK-19" target="RLp4bz0iWzhQgfL3OJoK-18" edge="1">
          <mxGeometry width="50" height="50" relative="1" as="geometry">
            <mxPoint x="98.52631578947367" y="55.5" as="sourcePoint" />
            <mxPoint x="145.26315789473682" y="52.5" as="targetPoint" />
          </mxGeometry>
        </mxCell>
        <mxCell id="RLp4bz0iWzhQgfL3OJoK-22" value="" style="endArrow=none;html=1;rounded=0;exitX=1;exitY=1;exitDx=0;exitDy=0;" parent="RLp4bz0iWzhQgfL3OJoK-16" source="RLp4bz0iWzhQgfL3OJoK-20" edge="1">
          <mxGeometry width="50" height="50" relative="1" as="geometry">
            <mxPoint x="113.68421052631578" y="90" as="sourcePoint" />
            <mxPoint x="94.73684210526315" y="37.5" as="targetPoint" />
          </mxGeometry>
        </mxCell>
        <mxCell id="RLp4bz0iWzhQgfL3OJoK-23" value="" style="endArrow=none;html=1;rounded=0;exitX=1;exitY=0.5;exitDx=0;exitDy=0;entryX=0.075;entryY=0.325;entryDx=0;entryDy=0;entryPerimeter=0;" parent="RLp4bz0iWzhQgfL3OJoK-16" source="RLp4bz0iWzhQgfL3OJoK-17" target="RLp4bz0iWzhQgfL3OJoK-18" edge="1">
          <mxGeometry width="50" height="50" relative="1" as="geometry">
            <mxPoint x="113.68421052631578" y="90" as="sourcePoint" />
            <mxPoint x="145.26315789473682" y="52.5" as="targetPoint" />
          </mxGeometry>
        </mxCell>
        <mxCell id="RLp4bz0iWzhQgfL3OJoK-24" value="" style="ellipse;whiteSpace=wrap;html=1;aspect=fixed;fillColor=#d5e8d4;strokeColor=#82b366;" parent="RLp4bz0iWzhQgfL3OJoK-16" vertex="1">
          <mxGeometry x="50.526315789473685" y="45" width="20" height="20" as="geometry" />
        </mxCell>
        <mxCell id="RLp4bz0iWzhQgfL3OJoK-25" value="" style="endArrow=none;html=1;rounded=0;exitX=0.5;exitY=1;exitDx=0;exitDy=0;entryX=0.5;entryY=0;entryDx=0;entryDy=0;" parent="RLp4bz0iWzhQgfL3OJoK-16" source="RLp4bz0iWzhQgfL3OJoK-20" target="RLp4bz0iWzhQgfL3OJoK-24" edge="1">
          <mxGeometry width="50" height="50" relative="1" as="geometry">
            <mxPoint x="50.526315789473685" y="210" as="sourcePoint" />
            <mxPoint x="82.10526315789473" y="172.5" as="targetPoint" />
          </mxGeometry>
        </mxCell>
        <mxCell id="zKu0NWkIydgmG8sTi8Hs-39" value="G_1" style="text;html=1;align=center;verticalAlign=middle;resizable=0;points=[];autosize=1;strokeColor=none;fillColor=none;" vertex="1" parent="RLp4bz0iWzhQgfL3OJoK-16">
          <mxGeometry x="-5.7900000000000205" width="50" height="30" as="geometry" />
        </mxCell>
        <mxCell id="RLp4bz0iWzhQgfL3OJoK-69" value="" style="group" parent="1" vertex="1" connectable="0">
          <mxGeometry x="-409.21000000000004" y="452.12" width="139.47" height="159.47" as="geometry" />
        </mxCell>
        <mxCell id="zKu0NWkIydgmG8sTi8Hs-36" value="" style="rounded=0;whiteSpace=wrap;html=1;" vertex="1" parent="RLp4bz0iWzhQgfL3OJoK-69">
          <mxGeometry x="-10" width="120" height="120" as="geometry" />
        </mxCell>
        <mxCell id="RLp4bz0iWzhQgfL3OJoK-71" value="" style="ellipse;whiteSpace=wrap;html=1;aspect=fixed;fillColor=#e1d5e7;strokeColor=#9673a6;" parent="RLp4bz0iWzhQgfL3OJoK-69" vertex="1">
          <mxGeometry x="69.4736842105263" y="90" width="18.94736842105263" height="18.94736842105263" as="geometry" />
        </mxCell>
        <mxCell id="RLp4bz0iWzhQgfL3OJoK-72" value="" style="ellipse;whiteSpace=wrap;html=1;aspect=fixed;fillColor=#fff2cc;strokeColor=#d6b656;" parent="RLp4bz0iWzhQgfL3OJoK-69" vertex="1">
          <mxGeometry x="94.73684210526315" y="30" width="18.94736842105263" height="18.94736842105263" as="geometry" />
        </mxCell>
        <mxCell id="RLp4bz0iWzhQgfL3OJoK-73" value="" style="ellipse;whiteSpace=wrap;html=1;aspect=fixed;fillColor=#f8cecc;strokeColor=#b85450;" parent="RLp4bz0iWzhQgfL3OJoK-69" vertex="1">
          <mxGeometry x="44.21052631578947" width="18.94736842105263" height="18.94736842105263" as="geometry" />
        </mxCell>
        <mxCell id="RLp4bz0iWzhQgfL3OJoK-74" value="" style="endArrow=none;html=1;rounded=0;exitX=0.35;exitY=1.05;exitDx=0;exitDy=0;exitPerimeter=0;entryX=1;entryY=0.5;entryDx=0;entryDy=0;" parent="RLp4bz0iWzhQgfL3OJoK-69" source="RLp4bz0iWzhQgfL3OJoK-72" target="RLp4bz0iWzhQgfL3OJoK-77" edge="1">
          <mxGeometry width="50" height="50" relative="1" as="geometry">
            <mxPoint x="98.52631578947367" y="55.5" as="sourcePoint" />
            <mxPoint x="145.26315789473682" y="52.5" as="targetPoint" />
          </mxGeometry>
        </mxCell>
        <mxCell id="RLp4bz0iWzhQgfL3OJoK-75" value="" style="endArrow=none;html=1;rounded=0;exitX=1;exitY=1;exitDx=0;exitDy=0;" parent="RLp4bz0iWzhQgfL3OJoK-69" source="RLp4bz0iWzhQgfL3OJoK-73" edge="1">
          <mxGeometry width="50" height="50" relative="1" as="geometry">
            <mxPoint x="113.68421052631578" y="90" as="sourcePoint" />
            <mxPoint x="94.73684210526315" y="37.5" as="targetPoint" />
          </mxGeometry>
        </mxCell>
        <mxCell id="RLp4bz0iWzhQgfL3OJoK-76" value="" style="endArrow=none;html=1;rounded=0;exitX=0.675;exitY=0.975;exitDx=0;exitDy=0;entryX=0.075;entryY=0.325;entryDx=0;entryDy=0;entryPerimeter=0;exitPerimeter=0;" parent="RLp4bz0iWzhQgfL3OJoK-69" source="RLp4bz0iWzhQgfL3OJoK-77" target="RLp4bz0iWzhQgfL3OJoK-71" edge="1">
          <mxGeometry width="50" height="50" relative="1" as="geometry">
            <mxPoint x="113.68421052631578" y="90" as="sourcePoint" />
            <mxPoint x="145.26315789473682" y="52.5" as="targetPoint" />
          </mxGeometry>
        </mxCell>
        <mxCell id="RLp4bz0iWzhQgfL3OJoK-77" value="" style="ellipse;whiteSpace=wrap;html=1;aspect=fixed;fillColor=#d5e8d4;strokeColor=#82b366;" parent="RLp4bz0iWzhQgfL3OJoK-69" vertex="1">
          <mxGeometry x="50.526315789473685" y="45" width="18.94736842105263" height="18.94736842105263" as="geometry" />
        </mxCell>
        <mxCell id="zKu0NWkIydgmG8sTi8Hs-41" value="G_t-1" style="text;html=1;align=center;verticalAlign=middle;resizable=0;points=[];autosize=1;strokeColor=none;fillColor=none;" vertex="1" parent="RLp4bz0iWzhQgfL3OJoK-69">
          <mxGeometry x="-2.7533531010703882e-14" width="50" height="30" as="geometry" />
        </mxCell>
        <mxCell id="zKu0NWkIydgmG8sTi8Hs-37" value="" style="rounded=0;whiteSpace=wrap;html=1;" vertex="1" parent="1">
          <mxGeometry x="-449.21000000000004" y="482.12" width="120" height="120" as="geometry" />
        </mxCell>
        <mxCell id="RLp4bz0iWzhQgfL3OJoK-80" value="" style="ellipse;whiteSpace=wrap;html=1;aspect=fixed;fillColor=#ffe6cc;strokeColor=#d79b00;" parent="1" vertex="1">
          <mxGeometry x="-449.21000000000004" y="527.12" width="18.94736842105263" height="18.94736842105263" as="geometry" />
        </mxCell>
        <mxCell id="RLp4bz0iWzhQgfL3OJoK-81" value="" style="ellipse;whiteSpace=wrap;html=1;aspect=fixed;fillColor=#e1d5e7;strokeColor=#9673a6;" parent="1" vertex="1">
          <mxGeometry x="-379.7363157894737" y="572.12" width="18.94736842105263" height="18.94736842105263" as="geometry" />
        </mxCell>
        <mxCell id="RLp4bz0iWzhQgfL3OJoK-83" value="" style="ellipse;whiteSpace=wrap;html=1;aspect=fixed;fillColor=#f8cecc;strokeColor=#b85450;" parent="1" vertex="1">
          <mxGeometry x="-404.99947368421056" y="482.12" width="18.94736842105263" height="18.94736842105263" as="geometry" />
        </mxCell>
        <mxCell id="RLp4bz0iWzhQgfL3OJoK-85" value="" style="endArrow=none;html=1;rounded=0;exitX=0.5;exitY=1;exitDx=0;exitDy=0;entryX=0.5;entryY=0;entryDx=0;entryDy=0;" parent="1" source="RLp4bz0iWzhQgfL3OJoK-83" target="RLp4bz0iWzhQgfL3OJoK-87" edge="1">
          <mxGeometry width="50" height="50" relative="1" as="geometry">
            <mxPoint x="-335.5257894736842" y="572.12" as="sourcePoint" />
            <mxPoint x="-389.21000000000004" y="522.12" as="targetPoint" />
          </mxGeometry>
        </mxCell>
        <mxCell id="RLp4bz0iWzhQgfL3OJoK-86" value="" style="endArrow=none;html=1;rounded=0;exitX=0.675;exitY=0.975;exitDx=0;exitDy=0;entryX=0.075;entryY=0.325;entryDx=0;entryDy=0;entryPerimeter=0;exitPerimeter=0;" parent="1" source="RLp4bz0iWzhQgfL3OJoK-87" target="RLp4bz0iWzhQgfL3OJoK-81" edge="1">
          <mxGeometry width="50" height="50" relative="1" as="geometry">
            <mxPoint x="-335.5257894736842" y="572.12" as="sourcePoint" />
            <mxPoint x="-303.94684210526316" y="534.62" as="targetPoint" />
          </mxGeometry>
        </mxCell>
        <mxCell id="RLp4bz0iWzhQgfL3OJoK-87" value="" style="ellipse;whiteSpace=wrap;html=1;aspect=fixed;fillColor=#d5e8d4;strokeColor=#82b366;" parent="1" vertex="1">
          <mxGeometry x="-398.6836842105263" y="527.12" width="18.94736842105263" height="18.94736842105263" as="geometry" />
        </mxCell>
        <mxCell id="RLp4bz0iWzhQgfL3OJoK-88" value="" style="endArrow=none;html=1;rounded=0;exitX=0.95;exitY=0.325;exitDx=0;exitDy=0;entryX=0;entryY=0.5;entryDx=0;entryDy=0;exitPerimeter=0;" parent="1" source="RLp4bz0iWzhQgfL3OJoK-80" target="RLp4bz0iWzhQgfL3OJoK-87" edge="1">
          <mxGeometry width="50" height="50" relative="1" as="geometry">
            <mxPoint x="-398.6836842105263" y="692.12" as="sourcePoint" />
            <mxPoint x="-367.10473684210524" y="654.62" as="targetPoint" />
          </mxGeometry>
        </mxCell>
        <mxCell id="zKu0NWkIydgmG8sTi8Hs-43" value="G_t" style="text;html=1;align=center;verticalAlign=middle;resizable=0;points=[];autosize=1;strokeColor=none;fillColor=none;" vertex="1" parent="1">
          <mxGeometry x="-450" y="482.12" width="40" height="30" as="geometry" />
        </mxCell>
        <mxCell id="zKu0NWkIydgmG8sTi8Hs-44" value="" style="endArrow=none;dashed=1;html=1;dashPattern=1 3;strokeWidth=2;rounded=0;" edge="1" parent="1">
          <mxGeometry width="50" height="50" relative="1" as="geometry">
            <mxPoint x="-279.21000000000004" y="552.12" as="sourcePoint" />
            <mxPoint x="-269.21000000000004" y="532.12" as="targetPoint" />
          </mxGeometry>
        </mxCell>
        <mxCell id="zKu0NWkIydgmG8sTi8Hs-56" style="edgeStyle=orthogonalEdgeStyle;rounded=0;orthogonalLoop=1;jettySize=auto;html=1;exitX=0;exitY=0.5;exitDx=0;exitDy=0;exitPerimeter=0;entryX=0;entryY=0.25;entryDx=0;entryDy=0;" edge="1" parent="1" source="zKu0NWkIydgmG8sTi8Hs-54" target="RLp4bz0iWzhQgfL3OJoK-227">
          <mxGeometry relative="1" as="geometry" />
        </mxCell>
        <mxCell id="zKu0NWkIydgmG8sTi8Hs-54" value="" style="strokeWidth=2;html=1;shape=mxgraph.flowchart.annotation_1;align=left;pointerEvents=1;rotation=90;" vertex="1" parent="1">
          <mxGeometry x="-360.35" y="263.67" width="24.61" height="214.2" as="geometry" />
        </mxCell>
        <mxCell id="zKu0NWkIydgmG8sTi8Hs-62" style="edgeStyle=orthogonalEdgeStyle;rounded=0;orthogonalLoop=1;jettySize=auto;html=1;exitX=1;exitY=0.5;exitDx=0;exitDy=0;entryX=0.25;entryY=0;entryDx=0;entryDy=0;" edge="1" parent="1" source="RLp4bz0iWzhQgfL3OJoK-392" target="RLp4bz0iWzhQgfL3OJoK-175">
          <mxGeometry relative="1" as="geometry" />
        </mxCell>
        <mxCell id="RLp4bz0iWzhQgfL3OJoK-426" value="" style="group;fillOpacity=90;" parent="1" vertex="1" connectable="0">
          <mxGeometry x="302" y="393.5" width="112" height="53.5" as="geometry" />
        </mxCell>
        <mxCell id="RLp4bz0iWzhQgfL3OJoK-427" value="" style="rounded=1;whiteSpace=wrap;html=1;" parent="RLp4bz0iWzhQgfL3OJoK-426" vertex="1">
          <mxGeometry width="112" height="25" as="geometry" />
        </mxCell>
        <mxCell id="RLp4bz0iWzhQgfL3OJoK-428" value="" style="ellipse;whiteSpace=wrap;html=1;aspect=fixed;fillColor=#d5e8d4;strokeColor=#82b366;fillOpacity=90;" parent="RLp4bz0iWzhQgfL3OJoK-426" vertex="1">
          <mxGeometry x="7.002578947368412" y="5.46875" width="14.0625" height="14.0625" as="geometry" />
        </mxCell>
        <mxCell id="RLp4bz0iWzhQgfL3OJoK-429" value="" style="ellipse;whiteSpace=wrap;html=1;aspect=fixed;fillColor=#d5e8d4;strokeColor=#82b366;fillOpacity=90;" parent="RLp4bz0iWzhQgfL3OJoK-426" vertex="1">
          <mxGeometry x="35.00257894736841" y="5.46875" width="14.0625" height="14.0625" as="geometry" />
        </mxCell>
        <mxCell id="RLp4bz0iWzhQgfL3OJoK-430" value="" style="ellipse;whiteSpace=wrap;html=1;aspect=fixed;fillColor=#d5e8d4;strokeColor=#82b366;fillOpacity=90;" parent="RLp4bz0iWzhQgfL3OJoK-426" vertex="1">
          <mxGeometry x="63.00257894736841" y="5.46875" width="14.0625" height="14.0625" as="geometry" />
        </mxCell>
        <mxCell id="RLp4bz0iWzhQgfL3OJoK-431" value="" style="ellipse;whiteSpace=wrap;html=1;aspect=fixed;fillColor=#d5e8d4;strokeColor=#82b366;fillOpacity=90;" parent="RLp4bz0iWzhQgfL3OJoK-426" vertex="1">
          <mxGeometry x="90.12757894736842" y="5.46875" width="14.0625" height="14.0625" as="geometry" />
        </mxCell>
        <mxCell id="RLp4bz0iWzhQgfL3OJoK-432" value="" style="group" parent="RLp4bz0iWzhQgfL3OJoK-426" vertex="1" connectable="0">
          <mxGeometry x="-28" y="-28.5" width="140" height="82" as="geometry" />
        </mxCell>
        <mxCell id="RLp4bz0iWzhQgfL3OJoK-433" value="&lt;font face=&quot;Times New Roman&quot;&gt;H_t&lt;/font&gt;" style="text;html=1;align=center;verticalAlign=middle;resizable=0;points=[];autosize=1;strokeColor=none;fillColor=none;" parent="RLp4bz0iWzhQgfL3OJoK-432" vertex="1">
          <mxGeometry x="20" width="40" height="30" as="geometry" />
        </mxCell>
        <mxCell id="RLp4bz0iWzhQgfL3OJoK-434" value="" style="group" parent="1" vertex="1" connectable="0">
          <mxGeometry x="288" y="406" width="112" height="25" as="geometry" />
        </mxCell>
        <mxCell id="RLp4bz0iWzhQgfL3OJoK-435" value="" style="rounded=1;whiteSpace=wrap;html=1;" parent="RLp4bz0iWzhQgfL3OJoK-434" vertex="1">
          <mxGeometry width="112" height="25" as="geometry" />
        </mxCell>
        <mxCell id="RLp4bz0iWzhQgfL3OJoK-436" value="" style="ellipse;whiteSpace=wrap;html=1;aspect=fixed;fillColor=#d5e8d4;strokeColor=#82b366;fillOpacity=90;" parent="RLp4bz0iWzhQgfL3OJoK-434" vertex="1">
          <mxGeometry x="7.002578947368412" y="5.46875" width="14.0625" height="14.0625" as="geometry" />
        </mxCell>
        <mxCell id="RLp4bz0iWzhQgfL3OJoK-437" value="" style="ellipse;whiteSpace=wrap;html=1;aspect=fixed;fillColor=#d5e8d4;strokeColor=#82b366;fillOpacity=90;" parent="RLp4bz0iWzhQgfL3OJoK-434" vertex="1">
          <mxGeometry x="35.00257894736841" y="5.46875" width="14.0625" height="14.0625" as="geometry" />
        </mxCell>
        <mxCell id="RLp4bz0iWzhQgfL3OJoK-438" value="" style="ellipse;whiteSpace=wrap;html=1;aspect=fixed;fillColor=#d5e8d4;strokeColor=#82b366;fillOpacity=90;" parent="RLp4bz0iWzhQgfL3OJoK-434" vertex="1">
          <mxGeometry x="63.00257894736841" y="5.46875" width="14.0625" height="14.0625" as="geometry" />
        </mxCell>
        <mxCell id="RLp4bz0iWzhQgfL3OJoK-439" value="" style="ellipse;whiteSpace=wrap;html=1;aspect=fixed;fillColor=#d5e8d4;strokeColor=#82b366;fillOpacity=90;" parent="RLp4bz0iWzhQgfL3OJoK-434" vertex="1">
          <mxGeometry x="90.12757894736842" y="5.46875" width="14.0625" height="14.0625" as="geometry" />
        </mxCell>
        <mxCell id="zKu0NWkIydgmG8sTi8Hs-59" style="edgeStyle=orthogonalEdgeStyle;rounded=0;orthogonalLoop=1;jettySize=auto;html=1;exitX=0.5;exitY=1;exitDx=0;exitDy=0;entryX=0.5;entryY=0;entryDx=0;entryDy=0;" edge="1" parent="1" source="RLp4bz0iWzhQgfL3OJoK-442" target="zKu0NWkIydgmG8sTi8Hs-57">
          <mxGeometry relative="1" as="geometry" />
        </mxCell>
        <mxCell id="RLp4bz0iWzhQgfL3OJoK-442" value="" style="rounded=1;whiteSpace=wrap;html=1;" parent="1" vertex="1">
          <mxGeometry x="274" y="418.5" width="112" height="25" as="geometry" />
        </mxCell>
        <mxCell id="RLp4bz0iWzhQgfL3OJoK-443" value="" style="ellipse;whiteSpace=wrap;html=1;aspect=fixed;fillColor=#d5e8d4;strokeColor=#82b366;fillOpacity=90;" parent="1" vertex="1">
          <mxGeometry x="281.0025789473684" y="423.96875" width="14.0625" height="14.0625" as="geometry" />
        </mxCell>
        <mxCell id="RLp4bz0iWzhQgfL3OJoK-444" value="" style="ellipse;whiteSpace=wrap;html=1;aspect=fixed;fillColor=#d5e8d4;strokeColor=#82b366;fillOpacity=90;" parent="1" vertex="1">
          <mxGeometry x="309.0025789473684" y="423.96875" width="14.0625" height="14.0625" as="geometry" />
        </mxCell>
        <mxCell id="RLp4bz0iWzhQgfL3OJoK-445" value="" style="ellipse;whiteSpace=wrap;html=1;aspect=fixed;fillColor=#d5e8d4;strokeColor=#82b366;fillOpacity=90;" parent="1" vertex="1">
          <mxGeometry x="337.0025789473684" y="423.96875" width="14.0625" height="14.0625" as="geometry" />
        </mxCell>
        <mxCell id="RLp4bz0iWzhQgfL3OJoK-446" value="" style="ellipse;whiteSpace=wrap;html=1;aspect=fixed;fillColor=#d5e8d4;strokeColor=#82b366;fillOpacity=90;" parent="1" vertex="1">
          <mxGeometry x="364.125" y="423.96875" width="13.28125" height="13.28125" as="geometry" />
        </mxCell>
        <mxCell id="zKu0NWkIydgmG8sTi8Hs-57" value="&lt;font face=&quot;Times New Roman&quot;&gt;Projector&lt;/font&gt;" style="rounded=1;whiteSpace=wrap;html=1;fillColor=#f8cecc;strokeColor=#b85450;" vertex="1" parent="1">
          <mxGeometry x="270" y="510" width="120" height="60" as="geometry" />
        </mxCell>
        <mxCell id="zKu0NWkIydgmG8sTi8Hs-69" style="edgeStyle=orthogonalEdgeStyle;rounded=0;orthogonalLoop=1;jettySize=auto;html=1;exitX=0;exitY=0.5;exitDx=0;exitDy=0;exitPerimeter=0;entryX=0;entryY=0.25;entryDx=0;entryDy=0;" edge="1" parent="1" source="zKu0NWkIydgmG8sTi8Hs-66" target="RLp4bz0iWzhQgfL3OJoK-252">
          <mxGeometry relative="1" as="geometry" />
        </mxCell>
        <mxCell id="zKu0NWkIydgmG8sTi8Hs-66" value="" style="strokeWidth=2;html=1;shape=mxgraph.flowchart.annotation_1;align=left;pointerEvents=1;rotation=-90;" vertex="1" parent="1">
          <mxGeometry x="-360.78999999999996" y="532.12" width="24.61" height="214.2" as="geometry" />
        </mxCell>
        <mxCell id="zKu0NWkIydgmG8sTi8Hs-67" style="edgeStyle=orthogonalEdgeStyle;rounded=0;orthogonalLoop=1;jettySize=auto;html=1;exitX=0.5;exitY=0;exitDx=0;exitDy=0;entryX=0.75;entryY=1;entryDx=0;entryDy=0;" edge="1" parent="1" source="RLp4bz0iWzhQgfL3OJoK-360" target="RLp4bz0iWzhQgfL3OJoK-409">
          <mxGeometry relative="1" as="geometry" />
        </mxCell>
        <mxCell id="zKu0NWkIydgmG8sTi8Hs-68" style="edgeStyle=orthogonalEdgeStyle;rounded=0;orthogonalLoop=1;jettySize=auto;html=1;exitX=0.5;exitY=0;exitDx=0;exitDy=0;entryX=0.25;entryY=1;entryDx=0;entryDy=0;" edge="1" parent="1" source="RLp4bz0iWzhQgfL3OJoK-240" target="RLp4bz0iWzhQgfL3OJoK-409">
          <mxGeometry relative="1" as="geometry" />
        </mxCell>
        <mxCell id="zKu0NWkIydgmG8sTi8Hs-95" style="edgeStyle=orthogonalEdgeStyle;rounded=0;orthogonalLoop=1;jettySize=auto;html=1;exitX=1;exitY=1;exitDx=0;exitDy=0;entryX=0;entryY=0.5;entryDx=0;entryDy=0;" edge="1" parent="1" source="zKu0NWkIydgmG8sTi8Hs-70" target="zKu0NWkIydgmG8sTi8Hs-89">
          <mxGeometry relative="1" as="geometry" />
        </mxCell>
        <mxCell id="zKu0NWkIydgmG8sTi8Hs-70" value="" style="rounded=0;whiteSpace=wrap;html=1;fillColor=#d5e8d4;strokeColor=#82b366;" vertex="1" parent="1">
          <mxGeometry x="440" y="280" width="40" height="400" as="geometry" />
        </mxCell>
        <mxCell id="zKu0NWkIydgmG8sTi8Hs-74" value="" style="rounded=0;whiteSpace=wrap;html=1;fillColor=#dae8fc;strokeColor=#6c8ebf;" vertex="1" parent="1">
          <mxGeometry x="440" y="680" width="40" height="360" as="geometry" />
        </mxCell>
        <mxCell id="zKu0NWkIydgmG8sTi8Hs-81" style="edgeStyle=orthogonalEdgeStyle;rounded=0;orthogonalLoop=1;jettySize=auto;html=1;exitX=1;exitY=0.5;exitDx=0;exitDy=0;entryX=0.5;entryY=0;entryDx=0;entryDy=0;" edge="1" parent="1" source="zKu0NWkIydgmG8sTi8Hs-75" target="zKu0NWkIydgmG8sTi8Hs-78">
          <mxGeometry relative="1" as="geometry" />
        </mxCell>
        <mxCell id="zKu0NWkIydgmG8sTi8Hs-75" value="&lt;p style=&quot;margin-top: 0pt; margin-bottom: 0pt; margin-left: 0in; text-align: left; direction: ltr; unicode-bidi: embed; word-break: normal;&quot;&gt;&lt;font style=&quot;font-size: 8px;&quot;&gt;&lt;span style=&quot;font-family: &amp;quot;Times New Roman&amp;quot;; color: rgb(70, 177, 225);&quot;&gt;Graph Information&lt;/span&gt;&lt;span style=&quot;font-family: &amp;quot;Times New Roman&amp;quot;;&quot;&gt;: &amp;lt;graph&amp;gt; Central Node 1:&amp;nbsp;&amp;nbsp;Node Index1, relation index 1: [[],[],[],[],[]], Timestamp1:[[],[],[],[],[]],Node list1:&amp;nbsp;&amp;nbsp;&lt;/span&gt;&lt;span style=&quot;font-family: &amp;quot;Times New Roman&amp;quot;;&quot;&gt;&amp;nbsp;&lt;/span&gt;&lt;/font&gt;&lt;span style=&quot;font-size: 8px; font-family: &amp;quot;Times New Roman&amp;quot;;&quot;&gt;&amp;lt;graph&amp;gt; Central Node 2:&lt;/span&gt;&lt;span style=&quot;font-size: 8px; font-family: &amp;quot;Times New Roman&amp;quot;;&quot;&gt;&amp;nbsp;&lt;/span&gt;&lt;span style=&quot;font-size: 8px; font-family: &amp;quot;Times New Roman&amp;quot;;&quot;&gt;&amp;nbsp;&lt;/span&gt;&lt;span style=&quot;font-size: 8px; font-family: &amp;quot;Times New Roman&amp;quot;;&quot;&gt;Node Index2, relation index 2: [[],[],[],[],[]], Timestamp2:[[],[],[],[],[]],Node list2:&lt;/span&gt;&lt;span style=&quot;font-size: 8px; font-family: &amp;quot;Times New Roman&amp;quot;;&quot;&gt;&amp;nbsp;&lt;/span&gt;&lt;/p&gt;&lt;p style=&quot;margin-top: 0pt; margin-bottom: 0pt; margin-left: 0in; text-align: left; direction: ltr; unicode-bidi: embed; word-break: normal;&quot;&gt;&lt;font style=&quot;font-size: 8px;&quot;&gt;&lt;span style=&quot;font-family: &amp;quot;Times New Roman&amp;quot;; color: rgb(70, 177, 225);&quot;&gt;Human Prompt&lt;/span&gt;&lt;span style=&quot;font-family: &amp;quot;Times New Roman&amp;quot;;&quot;&gt;: &amp;gt;Given a sequence of graph tokens: &amp;lt;graph that constitute a subgraph of a&amp;nbsp;&lt;/span&gt;&lt;span style=&quot;font-family: &amp;quot;Times New Roman&amp;quot;;&quot;&gt;siot&lt;/span&gt;&lt;span style=&quot;font-family: &amp;quot;Times New Roman&amp;quot;;&quot;&gt;&amp;nbsp;graph, and the other sequence of graph tokens: &amp;lt;graph&amp;gt;, are these two central nodes connected? Give me an answer of &quot;yes&quot; or &quot;no&quot;.&lt;/span&gt;&lt;/font&gt;&lt;/p&gt;" style="rounded=1;whiteSpace=wrap;html=1;" vertex="1" parent="1">
          <mxGeometry x="-319.99999999999994" y="800" width="320" height="160" as="geometry" />
        </mxCell>
        <mxCell id="zKu0NWkIydgmG8sTi8Hs-77" value="&lt;font style=&quot;font-size: 18px;&quot; face=&quot;Times New Roman&quot;&gt;Prompt&amp;nbsp;engineering&lt;/font&gt;" style="text;html=1;align=center;verticalAlign=middle;resizable=0;points=[];autosize=1;strokeColor=none;fillColor=none;" vertex="1" parent="1">
          <mxGeometry x="-315" y="800" width="170" height="30" as="geometry" />
        </mxCell>
        <mxCell id="zKu0NWkIydgmG8sTi8Hs-82" style="edgeStyle=orthogonalEdgeStyle;rounded=0;orthogonalLoop=1;jettySize=auto;html=1;exitX=0.5;exitY=1;exitDx=0;exitDy=0;entryX=0.5;entryY=0;entryDx=0;entryDy=0;" edge="1" parent="1" source="zKu0NWkIydgmG8sTi8Hs-78" target="zKu0NWkIydgmG8sTi8Hs-80">
          <mxGeometry relative="1" as="geometry" />
        </mxCell>
        <mxCell id="zKu0NWkIydgmG8sTi8Hs-78" value="Tokenization" style="rounded=0;whiteSpace=wrap;html=1;rotation=-90;" vertex="1" parent="1">
          <mxGeometry x="-19" y="860" width="160" height="40" as="geometry" />
        </mxCell>
        <mxCell id="zKu0NWkIydgmG8sTi8Hs-80" value="&lt;font style=&quot;font-size: 14px;&quot; face=&quot;Times New Roman&quot;&gt;Embedding&lt;/font&gt;&lt;div&gt;&lt;font style=&quot;font-size: 14px;&quot; face=&quot;Times New Roman&quot;&gt;+&lt;/font&gt;&lt;/div&gt;&lt;div&gt;&lt;font size=&quot;3&quot; face=&quot;Times New Roman&quot;&gt;Positional Encoding&lt;/font&gt;&lt;/div&gt;" style="rounded=0;whiteSpace=wrap;html=1;rotation=-90;fillColor=#ffe6cc;strokeColor=#d79b00;" vertex="1" parent="1">
          <mxGeometry x="100" y="820" width="159" height="120" as="geometry" />
        </mxCell>
        <mxCell id="zKu0NWkIydgmG8sTi8Hs-83" style="edgeStyle=orthogonalEdgeStyle;rounded=0;orthogonalLoop=1;jettySize=auto;html=1;exitX=0.5;exitY=1;exitDx=0;exitDy=0;entryX=-0.036;entryY=0.552;entryDx=0;entryDy=0;entryPerimeter=0;" edge="1" parent="1" source="zKu0NWkIydgmG8sTi8Hs-80" target="zKu0NWkIydgmG8sTi8Hs-74">
          <mxGeometry relative="1" as="geometry" />
        </mxCell>
        <mxCell id="zKu0NWkIydgmG8sTi8Hs-84" value="&lt;font face=&quot;Times New Roman&quot; style=&quot;font-size: 14px;&quot;&gt;Graph Token&lt;/font&gt;" style="text;html=1;align=center;verticalAlign=middle;resizable=0;points=[];autosize=1;strokeColor=none;fillColor=none;rotation=-90;" vertex="1" parent="1">
          <mxGeometry x="410" y="465" width="100" height="30" as="geometry" />
        </mxCell>
        <mxCell id="zKu0NWkIydgmG8sTi8Hs-86" value="&lt;font face=&quot;Times New Roman&quot; style=&quot;font-size: 14px;&quot;&gt;Language Token&lt;/font&gt;" style="text;html=1;align=center;verticalAlign=middle;resizable=0;points=[];autosize=1;strokeColor=none;fillColor=none;rotation=-90;" vertex="1" parent="1">
          <mxGeometry x="400" y="850" width="120" height="30" as="geometry" />
        </mxCell>
        <mxCell id="zKu0NWkIydgmG8sTi8Hs-87" style="edgeStyle=orthogonalEdgeStyle;rounded=0;orthogonalLoop=1;jettySize=auto;html=1;exitX=1;exitY=0.5;exitDx=0;exitDy=0;entryX=-0.071;entryY=0.651;entryDx=0;entryDy=0;entryPerimeter=0;" edge="1" parent="1" source="zKu0NWkIydgmG8sTi8Hs-57" target="zKu0NWkIydgmG8sTi8Hs-70">
          <mxGeometry relative="1" as="geometry" />
        </mxCell>
        <mxCell id="zKu0NWkIydgmG8sTi8Hs-96" style="edgeStyle=orthogonalEdgeStyle;rounded=0;orthogonalLoop=1;jettySize=auto;html=1;exitX=0.5;exitY=1;exitDx=0;exitDy=0;" edge="1" parent="1" source="zKu0NWkIydgmG8sTi8Hs-89">
          <mxGeometry relative="1" as="geometry">
            <mxPoint x="600" y="890" as="targetPoint" />
          </mxGeometry>
        </mxCell>
        <mxCell id="zKu0NWkIydgmG8sTi8Hs-89" value="&lt;font face=&quot;Times New Roman&quot; style=&quot;font-size: 48px;&quot;&gt;LLM&lt;/font&gt;" style="whiteSpace=wrap;html=1;aspect=fixed;" vertex="1" parent="1">
          <mxGeometry x="520" y="680" width="160" height="160" as="geometry" />
        </mxCell>
        <mxCell id="zKu0NWkIydgmG8sTi8Hs-90" value="" style="verticalLabelPosition=middle;verticalAlign=middle;html=1;shape=trapezoid;perimeter=trapezoidPerimeter;whiteSpace=wrap;size=0.23;arcSize=10;flipV=1;labelPosition=center;align=center;" vertex="1" parent="1">
          <mxGeometry x="520" y="480.45" width="160" height="59.55" as="geometry" />
        </mxCell>
        <mxCell id="zKu0NWkIydgmG8sTi8Hs-91" value="" style="verticalLabelPosition=middle;verticalAlign=middle;html=1;shape=trapezoid;perimeter=trapezoidPerimeter;whiteSpace=wrap;size=0.23;arcSize=10;flipV=1;labelPosition=center;align=center;rotation=-180;" vertex="1" parent="1">
          <mxGeometry x="520" y="574.23" width="160" height="63.78" as="geometry" />
        </mxCell>
        <mxCell id="zKu0NWkIydgmG8sTi8Hs-92" value="" style="shape=cross;whiteSpace=wrap;html=1;" vertex="1" parent="1">
          <mxGeometry x="580" y="639.85" width="40" height="40.15" as="geometry" />
        </mxCell>
        <mxCell id="zKu0NWkIydgmG8sTi8Hs-94" value="&lt;font face=&quot;Times New Roman&quot; style=&quot;font-size: 14px;&quot;&gt;LoRA&lt;/font&gt;" style="text;html=1;align=center;verticalAlign=middle;resizable=0;points=[];autosize=1;strokeColor=none;fillColor=none;" vertex="1" parent="1">
          <mxGeometry x="570" y="540" width="60" height="30" as="geometry" />
        </mxCell>
        <mxCell id="zKu0NWkIydgmG8sTi8Hs-97" value="&lt;font style=&quot;font-size: 14px;&quot; face=&quot;Times New Roman&quot;&gt;Prediction&lt;/font&gt;" style="rounded=1;whiteSpace=wrap;html=1;fillColor=#b1ddf0;strokeColor=#10739e;" vertex="1" parent="1">
          <mxGeometry x="540" y="890" width="120" height="60" as="geometry" />
        </mxCell>
        <mxCell id="zKu0NWkIydgmG8sTi8Hs-98" value="" style="shape=image;verticalLabelPosition=bottom;labelBackgroundColor=default;verticalAlign=top;aspect=fixed;imageAspect=0;image=data:image/svg+xml,PHN2ZyB4bWxucz0iaHR0cDovL3d3dy53My5vcmcvMjAwMC9zdmciIHZlcnNpb249IjEuMSIgdmlld0JveD0iMCAwIDEwMjQgMTAyNCIgaGVpZ2h0PSIyMDAuMDBweCIgd2lkdGg9IjIwMHB4IiBjbGFzcz0iaWNvbiI+PHBhdGggZmlsbD0iI0VFN0UyRSIgZD0iTTUzNi4yMTEyIDBjMjcuMzYyMTMzIDQ5LjgwNDggNDQuNDQxNiAxMTYuODc2OCA0NC40NDE2IDE5MS4xMjUzMzMgMCAxNTMuMjkyOC03MS43MTg0IDI3Ny41OTc4NjctMTYwLjI0NzQ2NyAyNzcuNTk3ODY3LTY4Ljk5MiAwLTEyNy4yOTE3MzMtNzYuMDAyMTMzLTE0OS44NzA5MzMtMTgxLjk5NDY2N0MxOTAuMzcyMjY3IDM5OS45NDAyNjcgMTIyLjg1NjUzMyA1MzQuMDQ1ODY3IDEyMi44NTY1MzMgNjY2Ljc3MzMzMyAxMjIuODU2NTMzIDg2NC4wNzY4IDI5Ny4wOTg2NjcgMTAyNCA1MTEuOTgwOCAxMDI0YzIxNC45MjA1MzMgMCAzODkuMTYyNjY3LTE1OS45MjMyIDM4OS4xNjI2NjctMzU3LjIyNjY2N0M5MDEuMTM5MiAzMDguMzc3NiA1NTAuNTIxNiAxMS45NjggNTM2LjIxMTIgMEw1MzYuMjExMiAwek01MTUuMTk3ODY3IDkzOC42MTU0NjdjLTEzMS4wOTc2IDAtMTcwLjIxODY2Ny0xMDEuNTA4MjY3LTE2My40NjQ1MzMtMTQyLjQ0NjkzMyAxMy40NjU2LTgxLjU4MjkzMyA5NC4wMjg4LTk0Ljg5NDkzMyAxNTQuODgtOTQuODk0OTMzIDE0NC44MTkyIDAgMjAzLjEyMzItMTUwLjc1NDEzMyAyMDYuNTY2NC0xODkuODM2OEM3MTMuMTc1NDY3IDUxMS40MzY4IDc2NS4zMTQxMzMgOTM4LjYxNTQ2NyA1MTUuMTk3ODY3IDkzOC42MTU0NjdMNTE1LjE5Nzg2NyA5MzguNjE1NDY3eiIvPjwvc3ZnPg==;" vertex="1" parent="1">
          <mxGeometry x="550" y="584.5" width="40" height="40" as="geometry" />
        </mxCell>
      </root>
    </mxGraphModel>
  </diagram>
</mxfile>
